<?xml version="1.0" encoding="UTF-8" standalone="no"?>
<svg
   xmlns:dc="http://purl.org/dc/elements/1.1/"
   xmlns:cc="http://creativecommons.org/ns#"
   xmlns:rdf="http://www.w3.org/1999/02/22-rdf-syntax-ns#"
   xmlns:svg="http://www.w3.org/2000/svg"
   xmlns="http://www.w3.org/2000/svg"
   id="svg3180"
   version="1.1"
   viewBox="0 0 62.737793 12.967707"
   height="12.967707mm"
   width="62.737793mm">
  <defs
     id="defs3174" />
  <metadata
     id="metadata3177">
    <rdf:RDF>
      <cc:Work
         rdf:about="">
        <dc:format>image/svg+xml</dc:format>
        <dc:type
           rdf:resource="http://purl.org/dc/dcmitype/StillImage" />
        <dc:title></dc:title>
      </cc:Work>
    </rdf:RDF>
  </metadata>
  <g
     transform="translate(-83.913842,-140.83757)"
     id="layer1">
    <g
       style="font-style:normal;font-weight:normal;font-size:10.58333302px;line-height:1.25;font-family:sans-serif;letter-spacing:0px;word-spacing:0px;fill:#495057;fill-opacity:1;stroke:none;stroke-width:0.26458332"
       transform="translate(26.789548,33.845685)"
       id="g846-9-3">
      <path
         d="m 60.151127,117.08333 v -5.83142 h -3.026833 v -1.38641 h 7.672916 v 1.38641 h -3.026833 v 5.83142 z"
         style="font-style:normal;font-variant:normal;font-weight:normal;font-stretch:normal;font-size:10.58333302px;font-family:Neuropolitical;-inkscape-font-specification:'Neuropolitical, Normal';font-variant-ligatures:normal;font-variant-caps:normal;font-variant-numeric:normal;font-feature-settings:normal;text-align:start;writing-mode:lr-tb;text-anchor:start;fill:#495057;fill-opacity:1;stroke-width:0.26458332"
         id="path819-7-9" />
      <path
         d="m 68.398685,117.08333 v -5.83142 h -3.026833 v -1.38641 h 7.672917 v 1.38641 h -3.026834 v 5.83142 z"
         style="font-style:normal;font-variant:normal;font-weight:normal;font-stretch:normal;font-size:10.58333302px;font-family:Neuropolitical;-inkscape-font-specification:'Neuropolitical, Normal';font-variant-ligatures:normal;font-variant-caps:normal;font-variant-numeric:normal;font-feature-settings:normal;text-align:start;writing-mode:lr-tb;text-anchor:start;fill:#495057;fill-opacity:1;stroke-width:0.26458332"
         id="path821-5-4" />
      <path
         d="m 79.497129,117.08333 -4.021667,-3.52425 v 3.52425 h -1.598083 v -7.21783 h 1.598083 v 3.45016 l 3.937,-3.45016 h 2.169583 l -4.1275,3.50308 4.243917,3.71475 z"
         style="font-style:normal;font-variant:normal;font-weight:normal;font-stretch:normal;font-size:10.58333302px;font-family:Neuropolitical;-inkscape-font-specification:'Neuropolitical, Normal';font-variant-ligatures:normal;font-variant-caps:normal;font-variant-numeric:normal;font-feature-settings:normal;text-align:start;writing-mode:lr-tb;text-anchor:start;fill:#495057;fill-opacity:1;stroke-width:0.26458332"
         id="path823-6-1" />
    </g>
    <path
       id="path825-4-5"
       style="font-style:normal;font-variant:normal;font-weight:normal;font-stretch:normal;font-size:10.58333302px;line-height:1.25;font-family:Neuropolitical;-inkscape-font-specification:'Neuropolitical, Normal';font-variant-ligatures:normal;font-variant-caps:normal;font-variant-numeric:normal;font-feature-settings:normal;text-align:start;letter-spacing:0px;word-spacing:0px;writing-mode:lr-tb;text-anchor:start;fill:#fa5252;fill-opacity:1;stroke:none;stroke-width:0.26458332;stroke-opacity:1"
       d="m 118.84629,143.71117 q 0.79375,0 1.32291,0.127 0.52917,0.127 0.84667,0.41275 0.3175,0.27516 0.4445,0.71966 0.13758,0.43392 0.13758,1.05834 v 2.42358 q 0,0.68791 -0.13758,1.16416 -0.127,0.46567 -0.4445,0.762 -0.3175,0.28575 -0.84667,0.42334 -0.52916,0.127 -1.32291,0.127 h -2.26484 v -1.34409 h 2.21192 q 0.34925,0 0.5715,-0.0423 0.23283,-0.0529 0.37042,-0.17992 0.14816,-0.127 0.20108,-0.33866 0.0635,-0.22225 0.0635,-0.55034 v -0.28575 h -5.29167 q -0.55033,0 -0.93133,-0.13758 -0.381,-0.13758 -0.62442,-0.39158 -0.23283,-0.254 -0.33866,-0.61383 -0.10584,-0.37042 -0.10584,-0.8255 v -0.52917 q 0,-0.49742 0.10584,-0.86783 0.10583,-0.37042 0.33866,-0.61384 0.24342,-0.254 0.62442,-0.37041 0.381,-0.127 0.93133,-0.127 z m -4.52967,2.52941 q 0,0.40217 0.14817,0.5715 0.14816,0.15875 0.53975,0.15875 h 4.99533 v -0.91016 q 0,-0.29634 -0.0423,-0.48684 -0.0423,-0.20108 -0.16934,-0.30691 -0.11641,-0.10584 -0.34925,-0.14817 -0.22225,-0.0423 -0.59266,-0.0423 h -3.84175 q -0.37042,0 -0.52917,0.16933 -0.15875,0.16933 -0.15875,0.52917 z" />
    <path
       id="path827-63-4"
       style="font-style:normal;font-variant:normal;font-weight:normal;font-stretch:normal;font-size:10.58333302px;line-height:1.25;font-family:Neuropolitical;-inkscape-font-specification:'Neuropolitical, Normal';font-variant-ligatures:normal;font-variant-caps:normal;font-variant-numeric:normal;font-feature-settings:normal;text-align:start;letter-spacing:0px;word-spacing:0px;writing-mode:lr-tb;text-anchor:start;fill:#fa5252;fill-opacity:1;stroke:none;stroke-width:0.26458332;stroke-opacity:1"
       d="m 122.78857,150.929 v -7.21783 h 1.60868 v 7.21783 z" />
    <path
       id="rect836-7-1"
       d="m 112.77495,141.64207 h 11.68324 c 1.11871,0 2.01933,0.90062 2.01933,2.01933 v 7.32005 c 0,1.11871 -0.90062,2.01933 -2.01933,2.01933 h -11.68324 c -1.11871,0 -2.01933,-0.90062 -2.01933,-2.01933 v -7.32005 c 0,-1.11871 0.90062,-2.01933 2.01933,-2.01933 z"
       style="font-style:normal;font-weight:normal;font-size:10.58333302px;line-height:1.25;font-family:sans-serif;letter-spacing:0px;word-spacing:0px;fill:none;fill-opacity:1;stroke:#fa5252;stroke-width:1.60899997;stroke-miterlimit:4;stroke-dasharray:none;stroke-opacity:1" />
    <g
       id="text857-9-5"
       style="font-style:normal;font-variant:normal;font-weight:normal;font-stretch:normal;font-size:10.58333302px;line-height:1.25;font-family:Neuropolitical;-inkscape-font-specification:'Neuropolitical, Normal';font-variant-ligatures:normal;font-variant-caps:normal;font-variant-numeric:normal;font-feature-settings:normal;text-align:start;letter-spacing:0px;word-spacing:0px;writing-mode:lr-tb;text-anchor:start;fill:#495057;fill-opacity:1;stroke:none;stroke-width:0.07000434"
       aria-label="RS">
      <path
         id="path7501"
         style="font-style:normal;font-variant:normal;font-weight:normal;font-stretch:normal;font-size:10.58333302px;font-family:Neuropolitical;-inkscape-font-specification:'Neuropolitical, Normal';font-variant-ligatures:normal;font-variant-caps:normal;font-variant-numeric:normal;font-feature-settings:normal;text-align:start;writing-mode:lr-tb;text-anchor:start;fill:#495057;fill-opacity:1;stroke-width:0.07000434"
         d="m 135.29357,151.08766 -4.22275,-2.62466 v 2.62466 h -1.59808 v -7.21783 h 5.6515 q 0.762,0 1.30175,0.0952 0.53975,0.0952 0.87841,0.33867 0.34925,0.24341 0.508,0.66675 0.15875,0.42333 0.15875,1.06891 v 0.49742 q 0,0.62442 -0.16933,1.03717 -0.16933,0.40216 -0.52917,0.64558 -0.34925,0.23283 -0.889,0.32808 -0.53975,0.0952 -1.28058,0.0952 h -1.27 l 4.23333,2.44475 z m 1.06892,-4.96358 q 0,-0.28575 -0.0635,-0.46567 -0.0635,-0.17991 -0.21167,-0.27516 -0.14817,-0.0952 -0.41275,-0.127 -0.26458,-0.0317 -0.65617,-0.0317 h -3.94758 v 2.20133 h 3.94758 q 0.39159,0 0.64559,-0.0317 0.26458,-0.0318 0.41275,-0.127 0.15875,-0.0952 0.22225,-0.27517 0.0635,-0.17991 0.0635,-0.47625 z" />
      <path
         id="path7503"
         style="font-style:normal;font-variant:normal;font-weight:normal;font-stretch:normal;font-size:10.58333302px;font-family:Neuropolitical;-inkscape-font-specification:'Neuropolitical, Normal';font-variant-ligatures:normal;font-variant-caps:normal;font-variant-numeric:normal;font-feature-settings:normal;text-align:start;writing-mode:lr-tb;text-anchor:start;fill:#495057;fill-opacity:1;stroke-width:0.07000434"
         d="m 138.88347,151.08766 v -1.36525 h 5.48216 q 0.43392,0 0.62442,-0.11641 0.1905,-0.127 0.1905,-0.49742 V 148.717 q 0,-0.33867 -0.1905,-0.47625 -0.1905,-0.14817 -0.61383,-0.14817 h -3.43959 q -0.60325,0 -1.00541,-0.10583 -0.39158,-0.11642 -0.62442,-0.33867 -0.23283,-0.23283 -0.32808,-0.5715 -0.0847,-0.34925 -0.0847,-0.81492 v -0.35983 q 0,-0.55033 0.11642,-0.94192 0.11642,-0.39158 0.35983,-0.62441 0.24342,-0.24342 0.635,-0.34925 0.39158,-0.11642 0.93133,-0.11642 h 2.24367 v 1.36525 h -2.0955 q -0.37042,0 -0.55033,0.14817 -0.16934,0.13758 -0.16934,0.5715 v 0.23283 q 0,0.33867 0.15875,0.48683 0.15875,0.13759 0.55034,0.13759 h 3.37608 q 0.60325,0 1.016,0.10583 0.42333,0.0952 0.68792,0.3175 0.26458,0.22225 0.381,0.5715 0.11641,0.34925 0.11641,0.83608 v 0.5715 q 0,0.508 -0.11641,0.86784 -0.11642,0.34925 -0.381,0.5715 -0.26459,0.22225 -0.68792,0.32808 -0.41275,0.10583 -1.016,0.10583 z" />
    </g>
  </g>
</svg>
